<?xml version="1.0" encoding="utf-8"?>
<!-- Generator: Adobe Illustrator 25.0.1, SVG Export Plug-In . SVG Version: 6.00 Build 0)  -->
<svg version="1.1" id="Calque_1" xmlns="http://www.w3.org/2000/svg" xmlns:xlink="http://www.w3.org/1999/xlink" x="0px" y="0px"
	 viewBox="0 0 2000 2000" style="enable-background:new 0 0 2000 2000;" xml:space="preserve">
<style type="text/css">
	.st0{fill:#F8F8F8;}
	.st1{fill:#DE4F4E;}
	.st2{fill:#EFEFEF;}
</style>
<g>
	<path class="st0" d="M1164.8,519L1164.8,519l65-101.9c22-34.5-5.1-77.8-48.7-77.8H935.4H689.7c-43.6,0-70.7,43.3-48.7,77.8L706,519
		c-567.7,234.6,63.1,1141,63.1,1141h166.3h166.3C1101.7,1660,1732.6,753.7,1164.8,519z"/>
	<g>
		<g>
			<path d="M1229.3,551.5c-1.9-5.4-64.5-32.5-64.5-32.5c75.1,118,16.6,240.9-5.4,283.2v49.6c2.8,0.1,5.5,0.4,8.3,0.5l12.3,0.5
				l6.7-10.4C1190.5,836.4,1282.9,701.1,1229.3,551.5z"/>
		</g>
		<g>
			<path class="st1" d="M1143.5,781.8l-1.6,0.9c-42.6,24.6-57.3,79.1-32.7,121.8l121.6,210.8l156-90l-121.6-210.8
				C1240.6,771.8,1186.1,757.2,1143.5,781.8z M1185.8,857.1c-13.7,7.9-31.3,3.2-39.2-10.5c-7.9-13.7-2.3-30,10.5-39.2
				c12.9-9.3,31.3-3.2,39.2,10.5C1204.3,831.6,1199.6,849.1,1185.8,857.1z"/>
			<g>
				<path class="st2" d="M1225.3,907.5c19.1-9,40.2-10.7,50.7,7.5l-30.4,17.5c-4.1-6.8-12.1-4.2-16.5-1.6
					c-2.8,1.6-11.8,6.8-8.6,12.4c7.2,12.5,55.7-32.8,76.1,2.5c12.2,21.2,0.2,38.6-19.3,51.9l14.3,21.8l-18.6,10.7l-11.9-23.3
					c-20,8.9-42.7,10.2-53.7-8.9l30.4-17.5l0.4,0.7c5,8.3,15.3,4.5,20.1,1.8c4.6-2.6,13.4-8.2,9.9-14.3c-7.5-13-56.7,31.2-76.4-3
					c-11.4-19.7-0.5-36.1,17.5-48.6l-14.2-22l18.6-10.7L1225.3,907.5z"/>
			</g>
		</g>
		<g>
			<path d="M1155,808c-331.3-18.2-444.8-276.5-448.9-288.4c0,0,0,0,0,0l-40.1,17c0,0,0,0,0,0c1.6,4.5,129.6,302.8,501.8,315.7
				l12.3,0.5c0,0,0,0,0,0l1.5-2.3c0,0,0,0,0,0c-10.1-14.1-17.1-28.1-20.5-45.3c0,0,0,0,0,0C1160,805.2,1156,807,1155,808
				C1155,808,1155,808,1155,808z"/>
		</g>
	</g>
</g>
</svg>
