<svg height="512" viewBox="0 0 56 60" width="512" xmlns="http://www.w3.org/2000/svg"><g id="Page-1" fill="none" fill-rule="evenodd"><g id="021---Bidder" fill="rgb(0,0,0)" fill-rule="nonzero" transform="translate(0 -1)"><path id="Shape" d="m54 2h-16c-1.1045695 0-2 .8954305-2 2v12c0 1.1045695.8954305 2 2 2h5v7.028c-.9632927.7124071-1.6343899 1.7510438-1.888 2.922l-1.761 8.2-8.061-3.219c-1.5359929-.6151826-3.1753931-.9311829-4.83-.931h-2.079c-.6327604-.8684337-1.0265424-1.8877152-1.142-2.956 3.5109515-1.6432305 5.7559242-5.1675375 5.761-9.044v-13c.061006-1.60922649-.5515224-3.17105294-1.6902347-4.30976529-1.1387124-1.13871234-2.7005388-1.75124066-4.3097653-1.69023471-.5522847 0-1 .44771525-1 1 .0350942.54042964-.1643231 1.06978421-.5472695 1.45273054-.3829463.38294634-.9123009.58236363-1.4527305.54726946h-2c-4.9680501.00606096-8.99393904 4.03194995-9 9v7c.00507584 3.8764625 2.2500485 7.4007695 5.761 9.044-.1139121 1.0676585-.5055849 2.0868352-1.136 2.956h-.8c-1.2181148-.0009563-2.4235293.2474776-3.542.73l-3.229 1.37c-3.67420306 1.5824642-6.05437311 5.1995049-6.054 9.2v8.7c.00606096 4.9680501 4.03194995 8.993939 9 9h21c1.1045695 0 2-.8954305 2-2v-15.015l6.938 2.773c1.9154664.7682112 4.0723138.6520246 5.8941699-.3175113 1.8218562-.969536 3.1230374-2.6936061 3.5558301-4.7114887l2.5-11.681c.4182589-1.9028997-.3212481-3.8738738-1.888-5.032v-7.016h5c1.1045695 0 2-.8954305 2-2v-12c0-1.1045695-.8954305-2-2-2zm-43 18v-7c.0044086-3.86416566 3.1358343-6.99559136 7-7h2c1.8044054.03870345 3.4027528-1.1577879 3.874-2.9 1.9011966.28310955 3.2635373 1.98276684 3.126 3.9v3.365c-1.1160064-.9386975-2.542967-1.42564781-4-1.365-.5522847 0-1 .44771525-1 1 0 .5522847.4477153 1 1 1 1.073388-.0427025 2.1158038.3649955 2.8754042 1.1245958.7596003.7596004 1.1672983 1.8020162 1.1245958 2.8754042v5c0 4.418278-3.581722 8-8 8s-8-3.581722-8-8zm8 10c.7841319-.002893 1.5651889-.0982176 2.327-.284.1908632 1.1967384.6443883 2.3363569 1.328 3.337-1.077299.7174243-2.3648648 1.0510289-3.655.947-1.2900668.1024545-2.5773407-.229484-3.657-.943.6848653-1.0016528 1.1391011-2.1427068 1.33-3.341.7618111.1857824 1.5428681.281107 2.327.284zm29.932-.37-2.5 11.681c-.3096034 1.4412105-1.2393876 2.6723627-2.5408977 3.3644708-1.3015101.692108-2.8421021.7746353-4.2101023.2255292l-11.36-4.54c-.3318997-.1325456-.7093-.0779563-.9900376.1432045-.2807377.2211609-.4221621.5752937-.371.9290001.051162.3537064.2871378.6532499.6190376.7857954l2.421.967v15.814h-5.026c.6618067-.8603889 1.0223232-1.9145307 1.026-3-.0033061-2.7600532-2.2399468-4.9966939-5-5h-11v-7.7c0-.5522847-.44771525-1-1-1s-1 .4477153-1 1v8.7c0 .5522847.44771525 1 1 1h12c1.6568542 0 3 1.3431458 3 3s-1.3431458 3-3 3h-12c-3.86416566-.0044086-6.99559136-3.1358343-7-7v-8.7c.00033572-3.1998575 1.90367135-6.0929906 4.842-7.36l3.223-1.371c.869757-.3760794 1.8074176-.5697379 2.755-.569h.644c.628.782 2.146 2 5.536 2s4.908-1.218 5.536-2h1.924c1.4007905.0003895 2.7886296.2681823 4.089.789l9.16 3.66c.2736055.1093779.5815231.0925204.841553-.0460723.2600299-.1385926.4457008-.3848116.507447-.6729277l2.01-9.361c.1628758-.777565.6312785-1.4571091 1.3-1.886.6684207-.4336785 1.4821367-.5830338 2.261-.415 1.6181194.3493988 2.6474068 1.9434517 2.3 3.562zm-1.932-5.524c-.6598298-.1350248-1.3401702-.1350248-2 0v-6.106h2zm7-8.106h-16v-12h16z"/></g></g></svg>