<?xml version="1.0" encoding="iso-8859-1"?>
<!-- Generator: Adobe Illustrator 16.0.0, SVG Export Plug-In . SVG Version: 6.00 Build 0)  -->
<!DOCTYPE svg PUBLIC "-//W3C//DTD SVG 1.1//EN" "http://www.w3.org/Graphics/SVG/1.1/DTD/svg11.dtd">
<svg version="1.1" id="Capa_1" xmlns="http://www.w3.org/2000/svg" xmlns:xlink="http://www.w3.org/1999/xlink" x="0px" y="0px"
	 width="612.002px" height="612.002px" viewBox="0 0 612.002 612.002" style="enable-background:new 0 0 612.002 612.002;"
	 xml:space="preserve">
<g>
	<path d="M591.025,153.291l-0.229-6.416c-0.336-10.855-5.045-21.118-13.048-28.464c-8.003-7.358-18.482-11.165-29.486-10.573
		c-4.21,0.229-8.462,0.404-12.725,0.404c-72.624,0-143.541-33.966-199.676-95.641c-15.294-16.801-44.402-16.801-59.698,0
		c-56.133,61.675-127.037,95.641-199.675,95.641c-4.305,0-8.583-0.202-12.834-0.416c-10.761-0.539-21.442,3.268-29.431,10.614
		c-7.977,7.344-12.658,17.607-13.007,28.436l-0.229,6.416c-0.216,5.502-0.416,10.99-0.416,16.544
		c0,209.386,93.071,361.107,269.151,438.735c5.18,2.289,10.735,3.432,16.277,3.432c5.543,0,11.098-1.143,16.277-3.43
		c176.08-77.628,269.151-229.349,269.151-438.735C591.441,164.281,591.228,158.793,591.025,153.291z M408.395,359.342
		c0,45.978-31.208,73.982-77.561,79.728v18.456c0,13.732-11.112,24.871-24.831,24.871c-13.721,0-24.845-11.139-24.845-24.871
		v-20.515c-23.566-4.439-46.501-13.586-66.706-28.087c-6.348-4.438-10.814-12.67-10.814-21.589
		c0-14.931,11.932-26.485,26.849-26.485c7.438,0,12.658,2.597,16.383,5.206c19.788,14.556,41.404,23.501,66.759,23.501
		c23.5,0,37.69-9.323,37.69-24.617v-0.767c0-14.527-8.959-21.979-52.609-33.173c-52.583-13.425-86.533-27.979-86.533-79.876v-0.727
		c0-40.367,27.777-68.911,68.952-76.512v-19.463c0-13.721,11.124-24.831,24.845-24.831c13.721,0,24.831,11.112,24.831,24.831v19.666
		c20.5,3.35,39.09,10.277,55.528,20.755c6.363,3.686,12.711,11.542,12.711,22.746c0,14.877-11.943,26.485-26.848,26.485
		c-5.637,0-10.088-1.493-14.556-4.129c-19.033-11.165-36.95-17.54-54.868-17.54c-21.993,0-33.562,10.061-33.562,22.734v0.793
		c0,17.124,11.179,22.734,56.334,34.3c52.946,13.789,82.794,32.836,82.794,78.302v0.808H408.395L408.395,359.342z"/>
</g>
<g>
</g>
<g>
</g>
<g>
</g>
<g>
</g>
<g>
</g>
<g>
</g>
<g>
</g>
<g>
</g>
<g>
</g>
<g>
</g>
<g>
</g>
<g>
</g>
<g>
</g>
<g>
</g>
<g>
</g>
</svg>
