<svg height="512pt" viewBox="0 -26 512 512" width="512pt" xmlns="http://www.w3.org/2000/svg"><path d="m482 120h-17.53125l-174.054688-91.351562c-3-16.277344-17.285156-28.648438-34.414062-28.648438s-31.414062 12.371094-34.410156 28.648438l-174.058594 91.351562h-17.53125c-16.542969 0-30 13.457031-30 30v280c0 16.542969 13.457031 30 30 30h452c16.542969 0 30-13.457031 30-30v-280c0-16.542969-13.457031-30-30-30zm-226-100c8.269531 0 15 6.730469 15 15s-6.730469 15-15 15-15-6.726562-15-15 6.730469-15 15-15zm236 410c0 5.515625-4.484375 10-10 10h-452c-5.515625 0-10-4.484375-10-10v-280c0-5.511719 4.484375-10 10-10h19.992188.015624.015626 39.976562c5.523438 0 10-4.476562 10-10 0-5.347656-4.203125-9.703125-9.480469-9.972656l133.78125-70.214844c5.585938 11.914062 17.691407 20.1875 31.699219 20.1875s26.113281-8.273438 31.703125-20.1875l133.730469 70.1875h-251.433594c-5.523438 0-10 4.480469-10 10 0 5.523438 4.476562 10 10 10h312c5.515625 0 10 4.488281 10 10zm0 0"/><path d="m462 160h-412c-5.523438 0-10 4.480469-10 10v240c0 5.523438 4.476562 10 10 10h292c5.519531 0 10-4.476562 10-10s-4.480469-10-10-10h-282v-220h392v220h-30c-5.523438 0-10 4.476562-10 10s4.476562 10 10 10h40c5.523438 0 10-4.476562 10-10v-240c0-5.519531-4.476562-10-10-10zm0 0"/><path d="m130.003906 140c5.523438 0 10-4.476562 10-10s-4.476562-10-10-10h-.007812c-5.523438 0-9.996094 4.476562-9.996094 10s4.480469 10 10.003906 10zm0 0"/><path d="m382.003906 400h-.007812c-5.523438 0-9.996094 4.476562-9.996094 10s4.480469 10 10.003906 10c5.523438 0 10-4.476562 10-10s-4.480468-10-10-10zm0 0"/><path d="m128.246094 321.214844h-14.566406c-5.523438 0-10 4.480468-10 10 0 5.523437 4.476562 10 10 10h14.566406c16.875 0 30.605468-13.730469 30.605468-30.605469 0-16.878906-13.730468-30.609375-30.605468-30.609375h-3.960938c-5.847656 0-10.605468-4.757812-10.605468-10.605469 0-5.851562 4.757812-10.609375 10.605468-10.609375h14.566406c5.523438 0 10-4.476562 10-10 0-5.519531-4.476562-10-10-10h-14.566406c-16.878906 0-30.605468 13.730469-30.605468 30.609375 0 16.875 13.726562 30.605469 30.605468 30.605469h3.960938c5.847656 0 10.605468 4.761719 10.605468 10.609375s-4.757812 10.605469-10.605468 10.605469zm0 0"/><path d="m273.519531 238.785156c-5.519531 0-10 4.476563-10 10v82.429688c0 5.523437 4.480469 10 10 10h50c5.523438 0 10-4.476563 10-10 0-5.519532-4.476562-10-10-10h-40v-72.429688c0-5.523437-4.476562-10-10-10zm0 0"/><path d="m175.027344 273.785156v32.429688c0 19.300781 15.699218 35 35 35 19.296875 0 35-15.699219 35-35v-32.429688c0-19.300781-15.703125-35-35-35-19.300782 0-35 15.699219-35 35zm50 0v32.429688c0 8.273437-6.730469 15-15 15-8.273438 0-15-6.726563-15-15v-32.429688c0-8.273437 6.726562-15 15-15 8.269531 0 15 6.730469 15 15zm0 0"/><path d="m418.320312 273.785156c0-19.300781-15.699218-35-34.996093-35h-25c-5.523438 0-10 4.476563-10 10v82.429688c0 5.523437 4.476562 10 10 10h25c19.296875 0 34.996093-15.699219 34.996093-35zm-20 32.429688c0 8.273437-6.726562 15-14.996093 15h-15v-62.429688h15c8.269531 0 14.996093 6.726563 14.996093 15zm0 0"/></svg>